<svg xmlns="http://www.w3.org/2000/svg" width="72" height="72" viewBox="0 0 72 72" fill="none">
  <rect width="72" height="72" rx="18" fill="#FFEFD5"/>
  <circle cx="36" cy="27" r="14" fill="#FFD8B1"/>
  <path d="M18 60C18 49.5066 26.5066 41 37 41H35C45.4934 41 54 49.5066 54 60V72H18V60Z" fill="#FFB84D"/>
  <path d="M24 28C24 20.268 30.268 14 38 14C44.9392 14 50.6984 19.0484 51.8028 25.6737C50.2041 24.5649 48.2631 23.8799 46.1628 23.7889C42.1361 23.6143 38.8799 25.658 36.7333 28.6C34.6612 31.4399 31.0597 33 27.5436 33C26.3168 33 25.1112 32.8103 23.9647 32.4567C24.0032 30.984 24.016 29.6127 24 28Z" fill="#2F2F2F"/>
  <circle cx="31" cy="27" r="1.5" fill="#2F2F2F"/>
  <circle cx="41" cy="27" r="1.5" fill="#2F2F2F"/>
  <path d="M31 34C32.3333 35.3333 34 36 36 36C38 36 39.6667 35.3333 41 34" stroke="#2F2F2F" stroke-width="2" stroke-linecap="round"/>
</svg>
